{
  "accessors": [
    {
      "bufferView": 2,
      "componentType": 5126,
      "count": 65532,
      "max": [
        0.9960939884185791,
        0.9960939884185791,
        0.5063674449920654
      ],
      "min": [
        -0.9960939884185791,
        -0.9960939884185791,
        0.22196486592292786
      ],
      "type": "VEC3"
    },
    {
      "bufferView": 2,
      "byteOffset": 786384,
      "componentType": 5126,
      "count": 65532,
      "max": [
        0.9078626036643982,
        0.8029025793075562,
        0.9999975562095642
      ],
      "min": [
        -0.7589144706726074,
        -0.7667775750160217,
        0.3319229781627655
      ],
      "type": "VEC3"
    },
    {
      "bufferView": 3,
      "componentType": 5126,
      "count": 65532,
      "max": [
        1.0,
        0.0991516262292862,
        0.764704167842865,
        1.0
      ],
      "min": [
        0.3474704325199127,
        -0.09002332389354706,
        -0.9376707673072815,
        1.0
      ],
      "type": "VEC4"
    },
    {
      "bufferView": 1,
      "componentType": 5126,
      "count": 65532,
      "max": [
        0.9980471134185791,
        0.9980471134185791
      ],
      "min": [
        0.0019531231373548508,
        0.0019531241850927472
      ],
      "type": "VEC2"
    },
    {
      "bufferView": 1,
      "byteOffset": 524256,
      "componentType": 5126,
      "count": 65532,
      "max": [
        0.9980471134185791,
        0.9980471134185791
      ],
      "min": [
        0.0019531231373548508,
        0.0019531241850927472
      ],
      "type": "VEC2"
    },
    {
      "bufferView": 0,
      "componentType": 5125,
      "count": 387060,
      "type": "SCALAR"
    },
    {
      "bufferView": 2,
      "byteOffset": 1572768,
      "componentType": 5126,
      "count": 65532,
      "max": [
        0.9960939884185791,
        0.9960939884185791,
        0.5183287858963013
      ],
      "min": [
        -0.7343752384185791,
        -0.7304689884185791,
        0.24746060371398926
      ],
      "type": "VEC3"
    },
    {
      "bufferView": 2,
      "byteOffset": 2359152,
      "componentType": 5126,
      "count": 65532,
      "max": [
        0.8680628538131714,
        0.8257009387016296,
        0.999937891960144
      ],
      "min": [
        -0.8122047185897827,
        -0.8298571705818176,
        0.38208284974098206
      ],
      "type": "VEC3"
    },
    {
      "bufferView": 3,
      "byteOffset": 1048512,
      "componentType": 5126,
      "count": 65532,
      "max": [
        1.0,
        0.2648285925388336,
        0.830267071723938,
        1.0
      ],
      "min": [
        0.44253504276275635,
        -0.14991335570812225,
        -0.8967451453208923,
        1.0
      ],
      "type": "VEC4"
    },
    {
      "bufferView": 1,
      "byteOffset": 1048512,
      "componentType": 5126,
      "count": 65532,
      "max": [
        0.9980471134185791,
        0.9980471134185791
      ],
      "min": [
        0.1328125,
        0.134765625
      ],
      "type": "VEC2"
    },
    {
      "bufferView": 1,
      "byteOffset": 1572768,
      "componentType": 5126,
      "count": 65532,
      "max": [
        0.9980471134185791,
        0.9980471134185791
      ],
      "min": [
        0.1328125,
        0.134765625
      ],
      "type": "VEC2"
    },
    {
      "bufferView": 0,
      "byteOffset": 1548240,
      "componentType": 5125,
      "count": 387882,
      "type": "SCALAR"
    },
    {
      "bufferView": 2,
      "byteOffset": 3145536,
      "componentType": 5126,
      "count": 65532,
      "max": [
        0.9960939288139343,
        0.9960939884185791,
        0.5132819414138794
      ],
      "min": [
        -0.7304689288139343,
        -0.41796886920928955,
        0.2788326144218445
      ],
      "type": "VEC3"
    },
    {
      "bufferView": 2,
      "byteOffset": 3931920,
      "componentType": 5126,
      "count": 65532,
      "max": [
        0.9182384610176086,
        0.8905569314956665,
        0.9999822974205017
      ],
      "min": [
        -0.9447678327560425,
        -0.8449971079826355,
        0.31575289368629456
      ],
      "type": "VEC3"
    },
    {
      "bufferView": 3,
      "byteOffset": 2097024,
      "componentType": 5126,
      "count": 65532,
      "max": [
        1.0,
        0.23356956243515015,
        0.9465445876121521,
        1.0
      ],
      "min": [
        0.3225714862346649,
        -0.14815309643745422,
        -0.9377550482749939,
        1.0
      ],
      "type": "VEC4"
    },
    {
      "bufferView": 1,
      "byteOffset": 2097024,
      "componentType": 5126,
      "count": 65532,
      "max": [
        0.9980470538139343,
        0.9980471134185791
      ],
      "min": [
        0.1347656399011612,
        0.2910156548023224
      ],
      "type": "VEC2"
    },
    {
      "bufferView": 1,
      "byteOffset": 2621280,
      "componentType": 5126,
      "count": 65532,
      "max": [
        0.9980470538139343,
        0.9980471134185791
      ],
      "min": [
        0.1347656399011612,
        0.2910156548023224
      ],
      "type": "VEC2"
    },
    {
      "bufferView": 0,
      "byteOffset": 3099768,
      "componentType": 5125,
      "count": 388812,
      "type": "SCALAR"
    },
    {
      "bufferView": 2,
      "byteOffset": 4718304,
      "componentType": 5126,
      "count": 65532,
      "max": [
        0.9960939884185791,
        0.9960939884185791,
        0.506070077419281
      ],
      "min": [
        -0.42187508940696716,
        -0.01171876210719347,
        0.302756130695343
      ],
      "type": "VEC3"
    },
    {
      "bufferView": 2,
      "byteOffset": 5504688,
      "componentType": 5126,
      "count": 65532,
      "max": [
        0.8870297074317932,
        0.822217583656311,
        0.9999978542327881
      ],
      "min": [
        -0.9286219477653503,
        -0.888347864151001,
        0.31790778040885925
      ],
      "type": "VEC3"
    },
    {
      "bufferView": 3,
      "byteOffset": 3145536,
      "componentType": 5126,
      "count": 65532,
      "max": [
        1.0,
        0.18156945705413818,
        0.9378362894058228,
        1.0
      ],
      "min": [
        0.3470570743083954,
        -0.19023649394512177,
        -0.8871932625770569,
        1.0
      ],
      "type": "VEC4"
    },
    {
      "bufferView": 1,
      "byteOffset": 3145536,
      "componentType": 5126,
      "count": 65532,
      "max": [
        0.9980471134185791,
        0.9980471134185791
      ],
      "min": [
        0.2890625596046448,
        0.4941406846046448
      ],
      "type": "VEC2"
    },
    {
      "bufferView": 1,
      "byteOffset": 3669792,
      "componentType": 5126,
      "count": 65532,
      "max": [
        0.9980471134185791,
        0.9980471134185791
      ],
      "min": [
        0.2890625596046448,
        0.4941406846046448
      ],
      "type": "VEC2"
    },
    {
      "bufferView": 0,
      "byteOffset": 4655016,
      "componentType": 5125,
      "count": 390057,
      "type": "SCALAR"
    },
    {
      "bufferView": 2,
      "byteOffset": 6291072,
      "componentType": 5126,
      "count": 1210,
      "max": [
        0.9960939288139343,
        0.9960939884185791,
        0.4880779981613159
      ],
      "min": [
        -0.7343751788139343,
        0.1367187649011612,
        0.26149579882621765
      ],
      "type": "VEC3"
    },
    {
      "bufferView": 2,
      "byteOffset": 6305592,
      "componentType": 5126,
      "count": 1210,
      "max": [
        0.3741379678249359,
        0.27486762404441833,
        0.999998927116394
      ],
      "min": [
        -0.5188270807266235,
        -0.46586087346076965,
        0.8317059874534607
      ],
      "type": "VEC3"
    },
    {
      "bufferView": 3,
      "byteOffset": 4194048,
      "componentType": 5126,
      "count": 1210,
      "max": [
        0.9999998211860657,
        0.03324972465634346,
        0.5235631465911865,
        1.0
      ],
      "min": [
        0.8519869446754456,
        -0.04742319509387016,
        -0.37995606660842896,
        1.0
      ],
      "type": "VEC4"
    },
    {
      "bufferView": 1,
      "byteOffset": 4194048,
      "componentType": 5126,
      "count": 1210,
      "max": [
        0.9980470538139343,
        0.9980471134185791
      ],
      "min": [
        0.1328125298023224,
        0.5683594942092896
      ],
      "type": "VEC2"
    },
    {
      "bufferView": 1,
      "byteOffset": 4203728,
      "componentType": 5126,
      "count": 1210,
      "max": [
        0.9980470538139343,
        0.9980471134185791
      ],
      "min": [
        0.1328125298023224,
        0.5683594942092896
      ],
      "type": "VEC2"
    },
    {
      "bufferView": 0,
      "byteOffset": 6215244,
      "componentType": 5125,
      "count": 6789,
      "type": "SCALAR"
    }
  ],
  "asset": {
    "extras": {
      "author": "Kubocarte (https://sketchfab.com/Kubocarte)",
      "license": "CC-BY-4.0 (http://creativecommons.org/licenses/by/4.0/)",
      "source": "https://sketchfab.com/3d-models/martian-terrain-283f84f89cb24045ab30ed9f9393aa5c",
      "title": "Martian Terrain"
    },
    "generator": "Sketchfab-14.2.0",
    "version": "2.0"
  },
  "bufferViews": [
    {
      "buffer": 0,
      "byteLength": 6242400,
      "name": "floatBufferViews",
      "target": 34963
    },
    {
      "buffer": 0,
      "byteLength": 4213408,
      "byteOffset": 6242400,
      "byteStride": 8,
      "name": "floatBufferViews",
      "target": 34962
    },
    {
      "buffer": 0,
      "byteLength": 6320112,
      "byteOffset": 10455808,
      "byteStride": 12,
      "name": "floatBufferViews",
      "target": 34962
    },
    {
      "buffer": 0,
      "byteLength": 4213408,
      "byteOffset": 16775920,
      "byteStride": 16,
      "name": "floatBufferViews",
      "target": 34962
    }
  ],
  "buffers": [
    {
      "byteLength": 20989328,
      "uri": "scene.bin"
    }
  ],
  "images": [
    {
      "uri": "textures/Material_baseColor.png"
    },
    {
      "uri": "textures/Material_metallicRoughness.png"
    },
    {
      "uri": "textures/Material_normal.png"
    }
  ],
  "materials": [
    {
      "doubleSided": true,
      "name": "Material",
      "normalTexture": {
        "index": 2
      },
      "pbrMetallicRoughness": {
        "baseColorTexture": {
          "index": 0
        },
        "metallicFactor": 0.0,
        "metallicRoughnessTexture": {
          "index": 1
        }
      }
    }
  ],
  "meshes": [
    {
      "name": "Plane_Material_0",
      "primitives": [
        {
          "attributes": {
            "NORMAL": 1,
            "POSITION": 0,
            "TANGENT": 2,
            "TEXCOORD_0": 3,
            "TEXCOORD_1": 4
          },
          "indices": 5,
          "material": 0,
          "mode": 4
        }
      ]
    },
    {
      "name": "Plane_Material_0",
      "primitives": [
        {
          "attributes": {
            "NORMAL": 7,
            "POSITION": 6,
            "TANGENT": 8,
            "TEXCOORD_0": 9,
            "TEXCOORD_1": 10
          },
          "indices": 11,
          "material": 0,
          "mode": 4
        }
      ]
    },
    {
      "name": "Plane_Material_0",
      "primitives": [
        {
          "attributes": {
            "NORMAL": 13,
            "POSITION": 12,
            "TANGENT": 14,
            "TEXCOORD_0": 15,
            "TEXCOORD_1": 16
          },
          "indices": 17,
          "material": 0,
          "mode": 4
        }
      ]
    },
    {
      "name": "Plane_Material_0",
      "primitives": [
        {
          "attributes": {
            "NORMAL": 19,
            "POSITION": 18,
            "TANGENT": 20,
            "TEXCOORD_0": 21,
            "TEXCOORD_1": 22
          },
          "indices": 23,
          "material": 0,
          "mode": 4
        }
      ]
    },
    {
      "name": "Plane_Material_0",
      "primitives": [
        {
          "attributes": {
            "NORMAL": 25,
            "POSITION": 24,
            "TANGENT": 26,
            "TEXCOORD_0": 27,
            "TEXCOORD_1": 28
          },
          "indices": 29,
          "material": 0,
          "mode": 4
        }
      ]
    }
  ],
  "nodes": [
    {
      "children": [
        1
      ],
      "matrix": [
        1.0,
        0.0,
        0.0,
        0.0,
        0.0,
        2.220446049250313e-16,
        -1.0,
        0.0,
        0.0,
        1.0,
        2.220446049250313e-16,
        0.0,
        0.0,
        0.0,
        0.0,
        1.0
      ],
      "name": "Sketchfab_model"
    },
    {
      "children": [
        2
      ],
      "matrix": [
        0.009999999776482582,
        0.0,
        0.0,
        0.0,
        0.0,
        0.0,
        0.009999999776482582,
        0.0,
        0.0,
        -0.009999999776482582,
        0.0,
        0.0,
        0.0,
        0.0,
        0.0,
        1.0
      ],
      "name": "Martian-Terrain.fbx"
    },
    {
      "children": [
        3,
        6,
        8
      ],
      "name": "RootNode"
    },
    {
      "children": [
        4
      ],
      "matrix": [
        -46.21516091942715,
        -27.099546766126203,
        -84.43797688471194,
        0.0,
        57.06733193620563,
        63.79320505962329,
        -51.70828380350461,
        0.0,
        67.87840229355362,
        -72.08356711747888,
        -14.017144067732536,
        0.0,
        407.6245422363281,
        590.38623046875,
        -100.54539489746094,
        1.0
      ],
      "name": "Light"
    },
    {
      "children": [
        5
      ],
      "matrix": [
        1.0,
        0.0,
        0.0,
        0.0,
        0.0,
        2.220446049250313e-16,
        1.0,
        0.0,
        0.0,
        -1.0,
        2.220446049250313e-16,
        0.0,
        0.0,
        0.0,
        0.0,
        1.0
      ],
      "name": "Object_4"
    },
    {
      "name": "Object_5"
    },
    {
      "children": [
        7
      ],
      "matrix": [
        -4.371138984105016e-06,
        -99.99999999999973,
        5.960463766996327e-06,
        0.0,
        -1.6292068227841128e-05,
        -5.960463056453591e-06,
        -99.9999999999985,
        0.0,
        99.99999999999858,
        -4.371139955550163e-06,
        -1.6292067961387602e-05,
        0.0,
        0.0,
        200.0,
        0.0,
        1.0
      ],
      "name": "Camera"
    },
    {
      "name": "Object_7"
    },
    {
      "children": [
        9,
        10,
        11,
        12,
        13
      ],
      "matrix": [
        100.0,
        0.0,
        0.0,
        0.0,
        0.0,
        -1.629206793918314e-05,
        -99.99999999999868,
        0.0,
        0.0,
        99.99999999999868,
        -1.629206793918314e-05,
        0.0,
        0.0,
        0.0,
        0.0,
        1.0
      ],
      "name": "Plane"
    },
    {
      "mesh": 0,
      "name": "Plane_Material_0"
    },
    {
      "mesh": 1,
      "name": "Plane_Material_0"
    },
    {
      "mesh": 2,
      "name": "Plane_Material_0"
    },
    {
      "mesh": 3,
      "name": "Plane_Material_0"
    },
    {
      "mesh": 4,
      "name": "Plane_Material_0"
    }
  ],
  "samplers": [
    {
      "magFilter": 9729,
      "minFilter": 9987,
      "wrapS": 10497,
      "wrapT": 10497
    }
  ],
  "scene": 0,
  "scenes": [
    {
      "name": "Sketchfab_Scene",
      "nodes": [
        0
      ]
    }
  ],
  "textures": [
    {
      "sampler": 0,
      "source": 0
    },
    {
      "sampler": 0,
      "source": 1
    },
    {
      "sampler": 0,
      "source": 2
    }
  ]
}
